<svg height="480pt" viewBox="0 0 480 480" width="480pt" xmlns="http://www.w3.org/2000/svg"><path d="m456 144c13.253906 0 24-10.746094 24-24v-96c0-13.253906-10.746094-24-24-24h-432c-13.253906 0-24 10.746094-24 24v96c0 13.253906 10.746094 24 24 24h16v137.601562l-17.601562 30.398438c-2.207032 3.824219-.902344 8.714844 2.921874 10.929688l14.679688 8.453124v84.617188h-16c-13.253906 0-24 10.746094-24 24v16c0 13.253906 10.746094 24 24 24h432c13.253906 0 24-10.746094 24-24v-16c0-13.253906-10.746094-24-24-24h-16v-188.207031l12.800781 1.710937c1.058594.136719 2.128907.207032 3.199219.207032 13.253906 0 24-10.742188 24-24v-19.421876c0-6.925781-2.988281-13.511718-8.199219-18.070312-5.210937-4.558594-12.136719-6.644531-19-5.722656l-12.800781 1.710937v-20.207031zm-440-24v-96c0-4.417969 3.582031-8 8-8h432c4.417969 0 8 3.582031 8 8v96c0 4.417969-3.582031 8-8 8h-432c-4.417969 0-8-3.582031-8-8zm328 80h-32v-8h32zm-48 16c0 13.253906-10.746094 24-24 24h-64c-13.253906 0-24-10.746094-24-24v-40h112zm-64 40h16v16h-16zm48-96h-80v-16h80zm-239.710938 153.089844 28-48.488282 20.800782 12-28 48.46875zm50.269532-54.097656-2.398438-1.382813-2.472656-1.433594 25.257812-44.175781c.699219-1.214844 1.0625-2.597656 1.054688-4v-64h8v61.929688zm-34.558594-114.992188h40v61.871094l-24.167969 42.3125-2.480469-1.429688c-1.839843-1.070312-4.027343-1.363281-6.082031-.8125-2.058593.550782-3.808593 1.894532-4.871093 3.738282l-2.398438 4.207031zm408 296v16c0 4.417969-3.582031 8-8 8h-432c-4.417969 0-8-3.582031-8-8v-16c0-4.417969 3.582031-8 8-8h432c4.417969 0 8 3.582031 8 8zm-144-88v-8c8.835938 0 16 7.164062 16 16s-7.164062 16-16 16h-4.199219c2.761719-7.699219 4.183594-15.820312 4.199219-24zm-16 0c-.035156 30.914062-25.085938 55.964844-56 56h-16c-30.914062-.035156-55.964844-25.085938-56-56v-24h128zm120 64h-143.199219c10.878907-5.59375 20.164063-13.851562 26.992188-24h12.207031c17.671875 0 32-14.328125 32-32s-14.328125-32-32-32v-8c0-4.417969-3.582031-8-8-8h-144c-4.417969 0-8 3.582031-8 8v32c.035156 26.996094 15.167969 51.703125 39.199219 64h-143.199219v-75.375l4 2.3125c.839844.453125 1.75.757812 2.695312.894531.214844.039063.425782.0625.640626.089844.214843.023437.441406.078125.664062.078125.699219-.003906 1.394531-.09375 2.070312-.273438l.089844-.039062c.839844-.25 1.636719-.636719 2.351563-1.144531.191406-.136719.367187-.269531.550781-.421875.75-.589844 1.382812-1.308594 1.875-2.121094l36-62.320312c2.144531-3.644532 1.015625-8.332032-2.554688-10.601563l30.625-55.199219c.65625-1.1875.996094-2.523437.992188-3.878906v-64h48v16h-8c-4.417969 0-8 3.582031-8 8v48c.027344 22.082031 17.917969 39.972656 40 40h8v24c0 4.417969 3.582031 8 8 8h32c4.417969 0 8-3.582031 8-8v-24h8c22.082031-.027344 39.972656-17.917969 40-40h39.472656l72.527344 9.664062zm30.945312-237.601562c2.277344-.300782 4.574219.390624 6.308594 1.898437 1.734375 1.511719 2.734375 3.691406 2.746094 5.992187v19.421876c.011719 2.3125-.988281 4.511718-2.734375 6.023437-1.738281 1.519531-4.042969 2.210937-6.328125 1.90625l-21.808594-2.90625h-.074218l-73.054688-9.742187v-9.984376l73.054688-9.71875h.074218zm-30.945312-12.0625-72.527344 9.664062h-39.472656v-8c0-4.417969-3.582031-8-8-8h-8v-16h128zm0 0"/><path d="m240 120c26.507812 0 48-21.492188 48-48s-21.492188-48-48-48-48 21.492188-48 48c.027344 26.5 21.5 47.972656 48 48zm0-16c-11.378906-.035156-21.878906-6.132812-27.550781-16h55.101562c-5.671875 9.867188-16.171875 15.964844-27.550781 16zm0-64c17.671875 0 32 14.328125 32 32h-26.230469l-6.175781-18.527344c-1.398438-4.199218-5.933594-6.46875-10.128906-5.074218-4.199219 1.398437-6.46875 5.933593-5.074219 10.128906l4.503906 13.472656h-20.894531c0-17.671875 14.328125-32 32-32zm0 0"/><path d="m72 104c17.671875 0 32-14.328125 32-32s-14.328125-32-32-32-32 14.328125-32 32 14.328125 32 32 32zm0-48c8.835938 0 16 7.164062 16 16s-7.164062 16-16 16-16-7.164062-16-16 7.164062-16 16-16zm0 0"/><path d="m128 64h16c4.417969 0 8-3.582031 8-8s-3.582031-8-8-8h-16c-4.417969 0-8 3.582031-8 8s3.582031 8 8 8zm0 0"/><path d="m128 96h16c4.417969 0 8-3.582031 8-8s-3.582031-8-8-8h-16c-4.417969 0-8 3.582031-8 8s3.582031 8 8 8zm0 0"/><path d="m336 104h96c4.417969 0 8-3.582031 8-8v-48c0-4.417969-3.582031-8-8-8h-96c-4.417969 0-8 3.582031-8 8v48c0 4.417969 3.582031 8 8 8zm8-48h80v32h-80zm0 0"/><path d="m392 440h-304c-4.417969 0-8 3.582031-8 8s3.582031 8 8 8h304c4.417969 0 8-3.582031 8-8s-3.582031-8-8-8zm0 0"/><path d="m416 448c0 4.417969 3.582031 8 8 8h16c4.417969 0 8-3.582031 8-8s-3.582031-8-8-8h-16c-4.417969 0-8 3.582031-8 8zm0 0"/><path d="m56 440h-16c-4.417969 0-8 3.582031-8 8s3.582031 8 8 8h16c4.417969 0 8-3.582031 8-8s-3.582031-8-8-8zm0 0"/></svg>