<?xml version="1.0" encoding="UTF-8"?>
<svg xmlns="http://www.w3.org/2000/svg" id="Layer_1" data-name="Layer 1" version="1.1" viewBox="0 0 590.38 84">
  <defs>
    <style>
      .cls-1 {
        fill: #c8a775;
      }

      .cls-1, .cls-2, .cls-3 {
        stroke-width: 0px;
      }

      .cls-2 {
        fill: #c39e73;
      }

      .cls-3 {
        fill: #c8b79c;
      }

      .cls-4 {
        fill: #fff;
        font-family: Marcellus-Regular, Marcellus;
        font-size: 60px;
        letter-spacing: .2em;
      }
    </style>
  </defs>
  <text class="cls-4" transform="translate(2.93 49.71)">
    <tspan x="0" y="0">BLOMMEHUSET</tspan>
  </text>
  <g>
    <g>
      <path class="cls-1" d="M217.98,64.46l1.94,3.92c.03.06.09.11.16.12l4.33.63c.18.03.25.25.12.37l-3.13,3.05c-.05.05-.08.12-.06.19l.74,4.31c.03.18-.16.31-.32.23l-3.87-2.04c-.06-.03-.14-.03-.2,0l-3.87,2.04c-.16.08-.35-.05-.32-.23l.74-4.31c.01-.07-.01-.14-.06-.19l-3.13-3.05c-.13-.13-.06-.35.12-.37l4.33-.63c.07-.01.13-.06.16-.12l1.94-3.92c.08-.16.31-.16.39,0Z"></path>
      <path class="cls-3" d="M217.79,65.37l-1.73,3.34c-.09.18-.26.29-.46.31l-3.75.34,3.96.19c.25.01.48-.14.57-.38l1.41-3.8Z"></path>
      <path class="cls-2" d="M213.58,76.57l-.09.5c-.03.18.16.31.32.23l3.87-2.04c.06-.03.14-.03.2,0l3.87,2.04c.16.08.35-.05.32-.23l-.74-4.31c-.01-.07.01-.14.06-.19l3.13-3.05c.13-.13.06-.35-.12-.37l-1.45-.21c-2.35,4.21-5.94,6.43-9.38,7.65Z"></path>
    </g>
    <g>
      <path class="cls-1" d="M313.22,64.24l1.94,3.92c.03.06.09.11.16.12l4.33.63c.18.03.25.25.12.37l-3.13,3.05c-.05.05-.08.12-.06.19l.74,4.31c.03.18-.16.31-.32.23l-3.87-2.04c-.06-.03-.14-.03-.2,0l-3.87,2.04c-.16.08-.35-.05-.32-.23l.74-4.31c.01-.07-.01-.14-.06-.19l-3.13-3.05c-.13-.13-.06-.35.12-.37l4.33-.63c.07-.01.13-.06.16-.12l1.94-3.92c.08-.16.31-.16.39,0Z"></path>
      <path class="cls-3" d="M313.02,65.14l-1.73,3.34c-.09.18-.26.29-.46.31l-3.75.34,3.96.19c.25.01.48-.14.57-.38l1.41-3.8Z"></path>
      <path class="cls-2" d="M308.82,76.35l-.09.5c-.03.18.16.31.32.23l3.87-2.04c.06-.03.14-.03.2,0l3.87,2.04c.16.08.35-.05.32-.23l-.74-4.31c-.01-.07.01-.14.06-.19l3.13-3.05c.13-.13.06-.35-.12-.37l-1.45-.21c-2.35,4.21-5.94,6.43-9.38,7.65Z"></path>
    </g>
    <g>
      <path class="cls-1" d="M344.25,64.24l1.94,3.92c.03.06.09.11.16.12l4.33.63c.18.03.25.25.12.37l-3.13,3.05c-.05.05-.08.12-.06.19l.74,4.31c.03.18-.16.31-.32.23l-3.87-2.04c-.06-.03-.14-.03-.2,0l-3.87,2.04c-.16.08-.35-.05-.32-.23l.74-4.31c.01-.07-.01-.14-.06-.19l-3.13-3.05c-.13-.13-.06-.35.12-.37l4.33-.63c.07-.01.13-.06.16-.12l1.94-3.92c.08-.16.31-.16.39,0Z"></path>
      <path class="cls-3" d="M344.05,65.14l-1.73,3.34c-.09.18-.26.29-.46.31l-3.75.34,3.96.19c.25.01.48-.14.57-.38l1.41-3.8Z"></path>
      <path class="cls-2" d="M339.85,76.35l-.09.5c-.03.18.16.31.32.23l3.87-2.04c.06-.03.14-.03.2,0l3.87,2.04c.16.08.35-.05.32-.23l-.74-4.31c-.01-.07.01-.14.06-.19l3.13-3.05c.13-.13.06-.35-.12-.37l-1.45-.21c-2.35,4.21-5.94,6.43-9.38,7.65Z"></path>
    </g>
    <g>
      <path class="cls-1" d="M281.08,64.24l1.94,3.92c.03.06.09.11.16.12l4.33.63c.18.03.25.25.12.37l-3.13,3.05c-.05.05-.08.12-.06.19l.74,4.31c.03.18-.16.31-.32.23l-3.87-2.04c-.06-.03-.14-.03-.2,0l-3.87,2.04c-.16.08-.35-.05-.32-.23l.74-4.31c.01-.07-.01-.14-.06-.19l-3.13-3.05c-.13-.13-.06-.35.12-.37l4.33-.63c.07-.01.13-.06.16-.12l1.94-3.92c.08-.16.31-.16.39,0Z"></path>
      <path class="cls-3" d="M280.88,65.14l-1.73,3.34c-.09.18-.26.29-.46.31l-3.75.34,3.96.19c.25.01.48-.14.57-.38l1.41-3.8Z"></path>
      <path class="cls-2" d="M276.68,76.35l-.09.5c-.03.18.16.31.32.23l3.87-2.04c.06-.03.14-.03.2,0l3.87,2.04c.16.08.35-.05.32-.23l-.74-4.31c-.01-.07.01-.14.06-.19l3.13-3.05c.13-.13.06-.35-.12-.37l-1.45-.21c-2.35,4.21-5.94,6.43-9.38,7.65Z"></path>
    </g>
    <g>
      <path class="cls-1" d="M250.05,64.24l1.94,3.92c.03.06.09.11.16.12l4.33.63c.18.03.25.25.12.37l-3.13,3.05c-.05.05-.08.12-.06.19l.74,4.31c.03.18-.16.31-.32.23l-3.87-2.04c-.06-.03-.14-.03-.2,0l-3.87,2.04c-.16.08-.35-.05-.32-.23l.74-4.31c.01-.07-.01-.14-.06-.19l-3.13-3.05c-.13-.13-.06-.35.12-.37l4.33-.63c.07-.01.13-.06.16-.12l1.94-3.92c.08-.16.31-.16.39,0Z"></path>
      <path class="cls-3" d="M249.85,65.14l-1.73,3.34c-.09.18-.26.29-.46.31l-3.75.34,3.96.19c.25.01.48-.14.57-.38l1.41-3.8Z"></path>
      <path class="cls-2" d="M245.65,76.35l-.09.5c-.03.18.16.31.32.23l3.87-2.04c.06-.03.14-.03.2,0l3.87,2.04c.16.08.35-.05.32-.23l-.74-4.31c-.01-.07.01-.14.06-.19l3.13-3.05c.13-.13.06-.35-.12-.37l-1.45-.21c-2.35,4.21-5.94,6.43-9.38,7.65Z"></path>
    </g>
  </g>
</svg>
