<?xml version="1.0" encoding="UTF-8"?>
<svg xmlns="http://www.w3.org/2000/svg" id="icons" viewBox="0 0 60 60" width="512" height="512"><path d="M57,20H55.94c-.619-8.908-9.387-16-20.107-16H34.816A2.966,2.966,0,0,0,35,3a3,3,0,0,0-6,0,2.966,2.966,0,0,0,.184,1H28.167C17.447,4,8.679,11.092,8.06,20H7a3,3,0,0,0,0,6H18.1a2.644,2.644,0,0,0-.095.67V30a13.358,13.358,0,0,1-2.029,7.869c-.265.506-.553,1.059-.865,1.683a21.1,21.1,0,0,0-1.7,4.637,3.027,3.027,0,0,0-3.5.461c-4.358,4.158-6.93,5.59-8.076,6.075A2.985,2.985,0,0,0,0,53.483V57a3,3,0,0,0,3,3H17.3a3,3,0,0,0,1.874-.657l2.706-2.166a2.97,2.97,0,0,0,.428-4.241A28.35,28.35,0,0,1,29.8,47.194a4.924,4.924,0,0,0,1.516-1.174A55.332,55.332,0,0,1,40.261,37.7a4.946,4.946,0,0,0,1.971-3.137c1.007-5.3,3.405-7.878,4.142-8.566H57a3,3,0,0,0,0-6ZM31,3a1,1,0,1,1,1,1A1,1,0,0,1,31,3ZM28.167,6h7.666c9.609,0,17.478,6.2,18.106,14H10.061C10.689,12.2,18.558,6,28.167,6ZM20.63,55.614l-2.707,2.167A1,1,0,0,1,17.3,58H3a1,1,0,0,1-1-1V53.483a.99.99,0,0,1,.605-.916h0c1.553-.656,4.319-2.31,8.677-6.468a1.019,1.019,0,0,1,.705-.281.987.987,0,0,1,.7.287l8.024,8.023a1,1,0,0,1-.083,1.487Zm19.638-21.42a2.966,2.966,0,0,1-1.175,1.886A57.3,57.3,0,0,0,29.806,44.7a2.947,2.947,0,0,1-.9.7,30.4,30.4,0,0,0-7.989,6.1l-5.776-5.776A18.242,18.242,0,0,1,16.9,40.447c.306-.613.589-1.156.849-1.653A15.224,15.224,0,0,0,20,30V26.67a.671.671,0,0,1,.67-.67,2.04,2.04,0,0,1,1.271.447,1.927,1.927,0,0,1,.689,1.129A18.106,18.106,0,0,1,23,31a31.778,31.778,0,0,1-.38,4.221A4.208,4.208,0,0,0,26.79,40a4.246,4.246,0,0,0,2.779-1.038l6.33-5.55A4.937,4.937,0,0,0,37.248,31.5c1.181-2.935,2.639-4.971,3.93-5.5H43.7A19.344,19.344,0,0,0,40.268,34.194ZM35.939,26h2.145a18.454,18.454,0,0,0-2.695,4.766,2.915,2.915,0,0,1-.808,1.142l-2.166,1.9c.216-.832.413-1.7.571-2.642A8.661,8.661,0,0,1,35.939,26Zm-4.925,4.834a21.964,21.964,0,0,1-1.623,5.624l-1.135,1a2.287,2.287,0,0,1-3.138-.217A2.179,2.179,0,0,1,24.6,35.5,33.441,33.441,0,0,0,25,31a20.2,20.2,0,0,0-.409-3.817A3.9,3.9,0,0,0,24.136,26H33.19A10.516,10.516,0,0,0,31.014,30.834ZM57,24H7a1,1,0,0,1,0-2H57a1,1,0,0,1,0,2Z"/><path d="M27.991,8c-6.636.057-12.481,3.306-14.89,8.276a1,1,0,1,0,1.8.873c2.05-4.226,7.318-7.1,13.11-7.149A1,1,0,0,0,29,8.992,1.012,1.012,0,0,0,27.991,8Z"/></svg>
