<svg id="Layer_1" enable-background="new 0 0 512 512" viewBox="0 0 512 512" xmlns="http://www.w3.org/2000/svg"><path clip-rule="evenodd" d="m466.403 9h-385.4c-20.18 0-36.597 16.417-36.597 36.597v184.47h-18.406c-9.374 0-17 7.626-17 17v238.933c0 9.374 7.626 17 17 17h92.75c9.373 0 16.999-7.626 16.999-17v-153.407h110.978v39.623h-57.846c-3.866 0-7 3.134-7 7v24.262c0 3.866 3.134 7 7 7h169.644c3.866 0 7-3.134 7-7v-24.262c0-3.866-3.134-7-7-7h-57.846v-39.623h165.725c20.18 0 36.597-16.417 36.597-36.598v-250.398c-.001-20.18-16.418-36.597-36.598-36.597zm-407.997 36.597c0-12.46 10.137-22.597 22.597-22.597h385.4c12.46 0 22.597 10.137 22.597 22.597v239.073h-353.251v-37.604c0-9.374-7.626-17-16.999-17h-60.344zm63.343 440.403c0 1.654-1.346 3-2.999 3h-92.75c-1.654 0-3-1.346-3-3v-238.934c0-1.654 1.346-3 3-3h92.75c1.653 0 2.999 1.346 2.999 3zm229.775-89.522h-155.643v-10.262h155.644v10.262zm-64.845-24.263h-25.952v-39.623h25.952zm179.724-53.622h-330.654v-19.923h353.087c-1.328 11.203-10.878 19.923-22.433 19.923zm-363.932-33.923h-60.193c-3.866 0-7 3.134-7 7v173.414c0 3.866 3.134 7 7 7h60.192c3.866 0 7-3.134 7-7v-173.414c.001-3.866-3.133-7-6.999-7zm-7 28.902h-16.097v-14.902h16.097zm-30.097 42.902v14.902h-16.096v-14.902zm-16.096-14v-14.902h16.096v14.902zm16.096 42.902v14.902h-16.096v-14.902zm0 28.902v14.902h-16.096v-14.902zm14 0h16.097v14.902h-16.097zm0-14v-14.902h16.097v14.902zm0-28.902v-14.902h16.097v14.902zm0-28.902v-14.902h16.097v14.902zm-14-43.804v14.902h-16.096v-14.902zm-16.096 144.51h16.096v14.904h-16.096zm30.096 14.904v-14.904h16.097v14.904zm5.097-192.991c0-4.971 4.029-9 9-9 4.97 0 9 4.029 9 9 0 4.97-4.03 9-9 9-4.971 0-9-4.029-9-9zm-42.193 0c0-4.971 4.029-9 9-9 4.97 0 9 4.029 9 9 0 4.97-4.03 9-9 9s-9-4.029-9-9z" fill-rule="evenodd"/></svg>