<svg id="Layer_1" height="512" viewBox="0 0 64 64" width="512" xmlns="http://www.w3.org/2000/svg"><g><g fill="none" stroke="#000" stroke-miterlimit="10" stroke-width="2"><path d=""/><path d="m60.7 63h-57.6c-1 0-1.8-.8-1.8-1.8 0-1 .8-1.8 1.8-1.8h57.6c1 0 1.8.8 1.8 1.8-.1 1-.8 1.8-1.8 1.8z" stroke-linecap="round" stroke-linejoin="round"/><path d="m28 59.3v-9.8c0-1 .8-1.7 1.7-1.7h4.5c1 0 1.7.8 1.7 1.7v9.8" stroke-linecap="round" stroke-linejoin="round"/><path d="m5.6 26.3v33.4" stroke-linecap="round" stroke-linejoin="round"/><path d="m58.4 58.9v-32.6" stroke-linecap="round" stroke-linejoin="round"/><path d="m62.8 26.3h-61.6l7-16.3h47.6z" stroke-linecap="round" stroke-linejoin="round"/><path d="m47.1 3.1c0 .6-.2 1.1-.6 1.5s-.9.6-1.5.6h-8.8c-1.2 0-2.1-.9-2.1-2.1 0-.6.2-1.1.6-1.5s.9-.6 1.5-.6h8.8c1.2 0 2.1.9 2.1 2.1z" stroke-linecap="round" stroke-linejoin="round"/><path d="m37.6 5.2h5.9v4.8h-5.9z" stroke-linecap="round" stroke-linejoin="round"/><circle cx="32" cy="18.2" r="3.5" stroke-linecap="round" stroke-linejoin="round"/><g stroke-linecap="round" stroke-linejoin="round"><g><path d="m44.4 32h7.3v7.4h-7.3z"/><path d="m42.6 39.4h10.9"/></g><g><path d="m44.4 45.4h7.3v7.4h-7.3z"/><path d="m42.6 52.8h10.9"/></g></g></g><g><g style="fill:none;stroke:#000;stroke-linecap:round;stroke-linejoin:round;stroke-miterlimit:10;stroke-width:2"><path d="m28.4 32h7.3v7.4h-7.3z"/><path d="m26.6 39.4h10.8"/></g></g><g style="fill:none;stroke:#000;stroke-linecap:round;stroke-linejoin:round;stroke-miterlimit:10;stroke-width:2"><g><path d="m12.3 32h7.3v7.4h-7.3z"/><path d="m10.5 39.4h10.9"/></g><g><path d="m12.3 45.4h7.3v7.4h-7.3z"/><path d="m10.5 52.8h10.9"/></g></g></g></svg>