<svg id="Layer_1" enable-background="new 0 0 511.986 511.986" height="512" viewBox="0 0 511.986 511.986" width="512" xmlns="http://www.w3.org/2000/svg"><g><path d="m508.079 262.393c14.671-57.853-13.685-108.09-72.377-145.724-50.574-32.189-122.242-49.146-192.327-46.715v-29.21c-2.051-54.014-79.499-53.995-81.539.001 0-.001 0 40.353 0 40.353-8.114 2.04-16.059 4.344-23.807 6.909v-18.263c-2.05-54.014-79.498-53.996-81.539.001 0-.001 0 60.885 0 60.885-45.157 36.101-65.637 81.747-52.583 131.762-5.198 18.79-5.196 38.66-.073 57.389-13.505 52.656 9.977 99.898 59.849 136.773 3.72 2.357 7.212 1.802 10.475-1.665 2.434-3.352 1.688-8.042-1.664-10.475-31.398-22.788-58.082-57.028-57.475-97.535 87.464 144.322 394.443 144.366 481.95 0 .686 45.759-32.643 82.474-69.25 105.488-84.353 55.178-232.527 58.764-323.513 11.22-8.882-4.149-15.544 8.531-6.742 13.4 95.53 50.122 249.472 45.941 338.238-11.922 58.538-37.569 86.929-87.548 72.451-145.284 5.123-18.727 5.124-38.603-.074-57.388zm-331.243-221.649c1.3-34.148 50.252-34.122 51.539 0v29.959c-17.645 1.197-34.898 3.532-51.539 6.961zm51.539 44.992v20.147c-32.821 2.563-63.734 9.677-90.346 20.795v-22.84c27.742-9.693 58.333-15.85 90.346-18.102zm-90.346 86.287 90.346-24.871v16.757l-90.346 24.871zm90.346-40.429-90.346 24.871v-13.433c26.07-11.822 57.103-19.406 90.346-22.111zm-156.885-61.85c1.3-34.145 50.249-34.126 51.539 0v23.653c-18.009 6.993-35.422 15.693-51.539 26.369zm-3.296 70.772c17.662-11.974 35.007-22.803 54.836-30.975v24.063c-39.834 19.524-67.882 52.972-66.896 85.967 5.01 83.373 119.483 114.789 199.858 114.764 52.64-.001 102.243-11.496 139.674-32.367 86.483-46.956 76.802-131.098-13.054-171.46-9.174-3.899-15.166 9.129-6.348 13.591 78.713 35.747 87.998 103.31 12.094 144.768-35.232 19.647-82.241 30.467-132.365 30.467s-97.133-10.82-132.366-30.467c-69.263-37.405-69.7-100.586-.598-138.252v65.18c0 4.142 3.357 7.5 7.5 7.5s7.5-3.358 7.5-7.5v-11.458l90.346-24.871v9.328c0 4.142 3.357 7.5 7.5 7.5s7.5-3.358 7.5-7.5v-68.752c33.18-1.281 67.452 2.464 97.348 10.988 3.989 1.127 8.131-1.193 9.256-5.18 1.126-3.986-1.193-8.13-5.18-9.255-31.234-8.898-66.838-12.844-101.424-11.559v-20.072c102.483-4.075 247.83 40.44 253.62 148.523-.002 39.059-24.605 76.036-69.278 104.121-89.801 59.048-253.65 59.053-343.449-.002-83.848-50.834-93.681-139.115-16.074-197.09zm359.524 254.733c-89.803 59.051-253.649 59.051-343.449-.002-36.733-23.091-70.185-60.05-69.241-105.99 87.479 144.299 394.408 144.342 481.932 0 .933 45.941-32.503 82.895-69.242 105.992z"/><path d="m332.096 276.167c-5.413 0-7.698-1.434-11.157-3.604-12.056-7.566-26.184-7.579-38.261 0-3.459 2.17-5.744 3.604-11.157 3.604-5.415 0-7.701-1.434-11.16-3.605-12.058-7.566-26.187-7.578-38.266 0-3.459 2.171-5.745 3.605-11.16 3.605-9.896.328-9.955 14.649 0 15 9.731 0 14.944-3.271 19.133-5.899 4.852-3.045 17.469-3.045 22.32 0 4.188 2.628 9.401 5.899 19.133 5.899 9.73 0 14.942-3.271 19.13-5.899 4.851-3.044 17.464-3.044 22.315 0 4.188 2.628 9.399 5.899 19.13 5.899 9.889-.325 9.96-14.647 0-15z"/><path d="m343.259 237.839c-3.459 2.17-5.744 3.604-11.158 3.604-5.415 0-7.701-1.434-11.16-3.604-12.058-7.566-26.187-7.578-38.266 0-3.459 2.17-5.745 3.604-11.16 3.604-9.927.342-9.927 14.658 0 15 9.731 0 14.944-3.271 19.133-5.898 4.853-3.045 17.468-3.045 22.32 0 10.767 7.864 27.527 7.845 38.264 0 4.852-3.045 17.464-3.045 22.315 0 4.188 2.628 9.399 5.899 19.13 5.899 9.927-.343 9.927-14.658 0-15-5.413 0-7.698-1.434-11.157-3.604-12.056-7.568-26.184-7.578-38.261-.001z"/></g></svg>