<svg id="glipy" viewBox="0 0 64 64" xmlns="http://www.w3.org/2000/svg"><path d="m17.97647 46.19544c-9.13323.32156-9.13555 13.48156-.00012 13.80456a6.90229 6.90229 0 1 0 .00012-13.80456z"/><path d="m22.69475 43.52071 23.48173-23.48171c-5.22156-23.44237-38.92243-20.36506-39.61042 3.86684a20.02122 20.02122 0 0 0 16.12869 19.61487z"/><path d="m56.01391 45.53429-12.02143-12.02135c1.00185-2.42246 2.95074-7.575 2.51454-10.96951l-19.34437 19.34437-1.96345 1.96351a19.93312 19.93312 0 0 0 11.04961-2.45437l11.95119 11.96119a4.8695 4.8695 0 0 0 6.84218.00006l.9717-.98172a4.831 4.831 0 0 0 .00003-6.84218z"/></svg>