<svg id="&#x421;&#x43B;&#x43E;&#x439;_1" enable-background="new 0 0 12 12" viewBox="0 0 12 12" xmlns="http://www.w3.org/2000/svg"><g fill="rgb(0,0,0)"><path d="m3.7109375 7.7607422c-.1318359.1591797-.109375.3959961.0498047.527832.1591797.1313477.3945313.1108398.5283203-.0493164.9238281-1.1152344 2.4980469-1.1152344 3.421875 0 .0742188.0893555.1816406.1357422.2890625.1357422.0849609 0 .1689453-.0283203.2392578-.0864258.1591797-.1318359.1816406-.3686523.0498047-.527832-1.2148437-1.4648438-3.3632812-1.4648438-4.578125 0z"/><path d="m6 4.125c-1.5244141 0-2.9560547.6660156-4.0302734 1.8759766-.1376953.1547852-.1240234.3920898.03125.5292969.1542969.137207.390625.1235352.5292969-.03125.930664-1.0473633 2.1621093-1.6240235 3.4697265-1.6240235s2.5390625.5766602 3.4697266 1.6240234c.0742187.0834961.1767578.1259766.2802734.1259766.0888672 0 .1777344-.03125.2490234-.0947266.1552734-.137207.1689453-.3745117.03125-.5292969-1.0742187-1.2099609-2.5058593-1.8759765-4.0302734-1.8759765z"/><path d="m11.7773438 4.2470703c-1.5429688-1.690918-3.59375-2.6220703-5.7773438-2.6220703s-4.234375.9311523-5.7773437 2.6220703c-.1396484.1533203-.1279297.390625.0244141.5297852.1552734.1411133.390625.1289063.5302734-.0239258 1.3984375-1.5336914 3.2529296-2.3779297 5.2226562-2.3779297s3.8242188.8442383 5.2226563 2.3779297c.0742187.0810547.1757812.1220703.2773437.1220703.0898438 0 .1806641-.0322266.2529297-.0981445.1523437-.1391602.1640625-.3764649.0244141-.5297852z"/><circle cx="6" cy="10" r=".375"/></g></svg>